<svg xmlns="http://www.w3.org/2000/svg" viewBox="0 0 1600 1000"><defs><linearGradient id="g" x1="0" y1="0" x2="1" y2="1"><stop stop-color="#064e3b"/><stop offset=".55" stop-color="#0f766e"/><stop offset="1" stop-color="#f59e0b"/></linearGradient><linearGradient id="brandG" x1="0" y1="0" x2="1" y2="1"><stop stop-color="#34d399"/><stop offset="1" stop-color="#10b981"/></linearGradient></defs><rect width="1600" height="1000" fill="url(#g)"/><circle cx="1280" cy="190" r="170" fill="#fef3c7" opacity=".8"/><path d="M0 720 Q300 560 610 720 T1260 680 T1600 740 V1000H0Z" fill="#022c22" opacity=".7"/><g fill="#f8fafc" opacity=".94"><circle cx="520" cy="430" r="62"/><circle cx="790" cy="390" r="62"/><circle cx="1020" cy="450" r="62"/><path d="M425 760c20-190 175-245 220-245s200 55 220 245z"/><path d="M695 735c20-190 175-245 220-245s200 55 220 245z"/><path d="M925 770c20-190 175-245 220-245s200 55 220 245z"/></g><path d="M570 590l180 110 230-160 210 130" fill="none" stroke="#34d399" stroke-width="24" stroke-linecap="round"/><g transform="translate(230, 75)"><rect width="360" height="72" rx="20" fill="#022c22" opacity="0.75"/><rect width="360" height="72" rx="20" fill="none" stroke="#34d399" stroke-width="2" opacity="0.6"/><circle cx="42" cy="36" r="20" fill="url(#brandG)"/><path d="M42 43s-10-6.5-10-11a4.5 4.5 0 0 1 8-2.6l2 2 2-2a4.5 4.5 0 0 1 8 2.6c0 4.5-10 11-10 11z" fill="#022c22"/><text x="76" y="46" fill="#ecfdf5" font-family="system-ui, -apple-system, BlinkMacSystemFont, 'Segoe UI', Roboto, sans-serif" font-size="32" font-weight="800" letter-spacing="-0.01em">Sahayata <tspan fill="#34d399">Web</tspan></text></g></svg>